<?xml version="1.0" encoding="utf-8"?>
<!-- Uploaded to: SVG Repo, www.svgrepo.com, Generator: SVG Repo Mixer Tools -->
<svg fill="#000000" width="800px" height="800px" viewBox="0 0 32 32" version="1.1" xmlns="http://www.w3.org/2000/svg">
<title>snake</title>
<path d="M22.053 12.181c-4.323-0.675-7.448-1.46-8.965-3.863-1.112-1.761 2.039-5.358 6.095-3.724 0.586 0.983 0.864 2.22 0.957 4.084l5.211 2.468 0.201-0.339 0.004 0.006c0.533-0.28 0.932-0.914 1.304-1.624-0.681 0.291-1.439 0.279-2.162 0.092-0.174-0.114-0.344-0.238-0.506-0.374-1.46-1.222-1.793-2.87-0.745-3.681 0.776-0.6 2.092-0.573 3.315-0.022 0.537 1.128 0.604 2.2 0.697 3.275 0.638-0.874 0.98-1.836 1.159-2.846l0.67-1.13c-3.453-2.642-8.257-3.489-12.044-3.182h-0c0 0 0 0 0 0s-0 0-0 0v0c-12.525 0-11.525 12.323 0 14.103s8.578 11.911 0.618 11.911c-5.252 0-8.788-1.241-11.295-4.003-2.625-2.892-0.779-6.213 2.764-3.24 3.558 2.987 6.258 5.213 10.719 1.746-5.587 1.853-7.776-2.665-11.75-5.108-3.768-2.316-8.613 2.416-5.366 7.565 2.708 4.294 9.53 6.726 15.185 6.726 13.768 0 16.18-16.929 3.936-18.84z"></path>
</svg>